inDegrees=no
num_controls=7
num_derivatives=13
num_iterations=120
num_multipliers=7
num_parameters=0
num_slacks=7
num_states=26
objective=0.444811
objective_accelerations=0.057998
objective_balance=0.003589
objective_effort=0.023275
objective_height=0.354459
objective_ligament=0.005489
solver_duration=1794.975398
status=Solve_Succeeded
success=true
DataType=double
version=3
OpenSimVersion=4.5
endheader
time	/jointset/ground_pelvis/pelvis_tilt/value	/jointset/ground_pelvis/pelvis_tx/value	/jointset/ground_pelvis/pelvis_ty/value	/jointset/hip_l/hip_flexion_l/value	/jointset/hip_l/hip_adduction_l/value	/jointset/hip_l/hip_rotation_l/value	/jointset/back/lumbar_extension/value	/jointset/patellofemoral_l/patellar_flexion_l/value	/jointset/knee_l/knee_flexion_l/value	/jointset/knee_l/knee_adduction_l/value	/jointset/knee_l/knee_rotation_l/value	/jointset/ankle_l/ankle_angle_l/value	/jointset/subtalar_l/subtalar_angle_l/value	/jointset/ground_pelvis/pelvis_tilt/speed	/jointset/ground_pelvis/pelvis_tx/speed	/jointset/ground_pelvis/pelvis_ty/speed	/jointset/hip_l/hip_flexion_l/speed	/jointset/hip_l/hip_adduction_l/speed	/jointset/hip_l/hip_rotation_l/speed	/jointset/back/lumbar_extension/speed	/jointset/patellofemoral_l/patellar_flexion_l/speed	/jointset/knee_l/knee_flexion_l/speed	/jointset/knee_l/knee_adduction_l/speed	/jointset/knee_l/knee_rotation_l/speed	/jointset/ankle_l/ankle_angle_l/speed	/jointset/subtalar_l/subtalar_angle_l/speed	/forceset/tau_hip_flexion_l	/forceset/tau_hip_adduction_l	/forceset/tau_hip_rotation_l	/forceset/tau_knee_flexion_l	/forceset/tau_ankle_angle_l	/forceset/tau_subtalar_angle_l	/forceset/tau_lumbar_extension	lambda_cid13_p0	lambda_cid13_p1	lambda_cid13_p2	lambda_cid13_p3	lambda_cid13_p4	lambda_cid13_p5	lambda_cid14_p0	/jointset/ground_pelvis/pelvis_tilt/accel	/jointset/ground_pelvis/pelvis_tx/accel	/jointset/ground_pelvis/pelvis_ty/accel	/jointset/hip_l/hip_flexion_l/accel	/jointset/hip_l/hip_adduction_l/accel	/jointset/hip_l/hip_rotation_l/accel	/jointset/back/lumbar_extension/accel	/jointset/patellofemoral_l/patellar_flexion_l/accel	/jointset/knee_l/knee_flexion_l/accel	/jointset/knee_l/knee_adduction_l/accel	/jointset/knee_l/knee_rotation_l/accel	/jointset/ankle_l/ankle_angle_l/accel	/jointset/subtalar_l/subtalar_angle_l/accel	gamma_cid13_p0	gamma_cid13_p1	gamma_cid13_p2	gamma_cid13_p3	gamma_cid13_p4	gamma_cid13_p5	gamma_cid14_p0
1.5	-0.3709599821492683	-0.0256997865392663	0.7597487036638156	1.116401984302508	-0.434861840077876	-0.2099902276243385	-0.226163722874985	0.8102595688447108	0.8102595688447572	-0.1294358413617998	-0.1456147080440006	0.1275164945869127	-0.01956482963071931	0.6854534633499469	0.274587261757864	0.5411917955149335	-2.482599458759937	0.2082828439214366	-0.7207360749934556	0.3121796758155986	-2.028625055006652	-2.028625055006623	-0.1343011992992429	0.134820550945232	-0.398812909163355	0.03515030400795981	-0.1759498695239597	0.03186675666179462	-0.008611715532909972	-0.2063392319695402	0.0493675213220374	0.03957247777526179	0.1695820389404751	-16.40579532119581	-17.12344178453958	5.603324431007614	-8.895367656642224	-520.6661672975713	-57.54988700428468	-24.69166152121785	0.6817067172394531	0.7443489337686477	-0.5120911355404628	-1.358380449686265	0.7180415209073131	-0.2237655726260462	1.51525935379027	-1.34420257567274	-1.344202575672694	0.1490935261388067	0.2146038021109877	-0.4742319798945616	0.5383065182524428	5.199255167834278e-07	3.897467183796707e-07	-3.083390585539273e-06	-1.439293556782771e-07	7.390078786956416e-07	-7.761420040888925e-08	4.743635809695498e-07
1.51	-0.3640713823568837	-0.02291704968879188	0.7651339115505541	1.091509864489167	-0.4327447067305306	-0.2172056186457166	-0.2229673950483269	0.7899083213361257	0.789908321336149	-0.1307758658402134	-0.1442557551967649	0.1235046826658025	-0.01918842592221913	0.692172085086911	0.2819158684481397	0.5357322064451734	-2.495472103220939	0.2151226975096784	-0.722219964293197	0.3270560675690052	-2.041343272363287	-2.041343272363172	-0.1337099519470952	0.1369754498422712	-0.4034921593371916	0.04012812145774362	-0.1702573172162286	0.03146495114812545	-0.008227481330527453	-0.2026803128237832	0.04820318321604696	0.03889432339421969	0.1649093844400047	-16.55898919348932	-16.81120321178909	5.563946480238181	-8.398867734064796	-516.5789840903265	-57.68495585267659	-25.6136594202496	0.6528351403672988	0.7204639296045723	-0.5803822567366048	-1.198776224064564	0.6640724342325254	-0.09194901734884101	1.469355794117218	-1.193546424309813	-1.193546424296978	0.01318926937162771	0.2161834807054798	-0.4561798128793663	0.4774092617188875	5.094710966297401e-07	5.060640368307666e-07	-2.896244826793629e-06	-1.037940017660655e-07	7.358482174405355e-07	1.10196762704759e-08	4.624440518493521e-07
1.52	-0.3571184172994388	-0.02006235729282514	0.7704610256537863	1.066499604275265	-0.4305597518160126	-0.2244320982418347	-0.2196231979625339	0.7694383086322431	0.7694383086322449	-0.132110168059177	-0.1428752032511218	0.1194477965876034	-0.01876226605854562	0.6983265163615693	0.288978370856327	0.5295730388137042	-2.506227538872237	0.2218471573559186	-0.7229537899409658	0.3417535276424644	-2.052378094065956	-2.052378094065755	-0.1331567474101926	0.139140370627514	-0.4078277405810747	0.04510153504262845	-0.1645647649085002	0.03106314563444798	-0.00784324712811253	-0.1990213936780301	0.04703884511005338	0.03821616901316563	0.160236729939536	-16.71554919844882	-16.50174790487317	5.528866596398261	-7.944545053075664	-512.5653564599058	-57.88042339658883	-26.53508940083211	0.5688686247783833	0.6911280773509793	-0.6520068478822618	-0.9349386877455175	0.6949627725070039	-0.07375284223149167	1.479473017800813	-1.007523444879255	-1.007523444879235	0.1414849630897949	0.2166081797517203	-0.4054981939039001	0.5374257452726353	4.903981747208179e-07	8.004504434073497e-07	-2.518025619538912e-06	-1.71440629390037e-08	7.179912928345285e-07	1.044154023639441e-07	4.516426490683556e-07
1.53	-0.3501068016969719	-0.01713826341715924	0.7757231699602407	1.04139209034452	-0.4283082510666537	-0.2316643602276741	-0.216133222842134	0.7488665031402568	0.7488665031403077	-0.133437928474351	-0.1414745949262733	0.1153495528927047	-0.01828633654403512	0.7038810189703744	0.2958053604130932	0.5227471033957927	-2.514921871237607	0.2284230462228302	-0.7233761255021907	0.3561981152207757	-2.061688311554682	-2.061688311554566	-0.1324086283831344	0.1409837826607366	-0.4117331321690947	0.05008940355701457	-0.1581424662947886	0.02982968969093103	-0.007554031692613429	-0.1968685655762481	0.04800412313726807	0.03727752537446791	0.1550397256052883	-16.20632126547676	-16.1910788967205	5.488271255866551	-8.019703641848015	-508.7242734103874	-58.01728836882577	-27.45583114900005	0.5314197833820882	0.6732661700067549	-0.7140614312112752	-0.7836478429797168	0.6344161801696313	-0.007703380769038607	1.420444445395322	-0.8486543608899368	-0.848654360902661	0.03967851317529846	0.1682184998506301	-0.3698308092995279	0.4801656516166845	4.62168094696959e-07	1.284035256117261e-06	-1.936790873243306e-06	1.18927622360086e-07	6.845185259181897e-07	2.028705934598968e-07	4.420292555227607e-07
1.54	-0.3430431053275247	-0.01414694329089217	0.7809138200040229	1.016208239623712	-0.4259918885813482	-0.2388970914626682	-0.2125001032824407	0.7282104187813782	0.728210418781478	-0.1347585670711186	-0.1400555503241473	0.1112149010483159	-0.01776038869496174	0.7087426697571966	0.3024236209765628	0.5152741862792583	-2.521494896884855	0.2348195045451993	-0.7230476397714595	0.3703824155010464	-2.069233867444233	-2.069233867444201	-0.1317323837296178	0.1428276260836827	-0.415109370479054	0.0551052019552036	-0.1517201676810817	0.02859623374740687	-0.007264816257086982	-0.1947157374744701	0.04896940116447993	0.03633888173575971	0.14984272127104	-15.6985227148176	-15.88330690868544	5.451733912409125	-8.132255015502217	-504.9209148002722	-58.20511268048962	-28.37646856353823	0.4302982603818539	0.6493822786916501	-0.7814031876068012	-0.5106773441210143	0.6590766635985018	0.07641141615971553	1.427415558192751	-0.6545911250440758	-0.654591125044051	0.1271100883814693	0.2166944576964284	-0.2996675382918047	0.543011722033202	4.464944645634822e-07	1.543984502732215e-06	-1.630422117383242e-06	1.894694564822706e-07	6.782709328376856e-07	2.792578562923691e-07	4.343289405303882e-07
1.55	-0.335934193522516	-0.01109074512450727	0.7860265513840388	0.990969438444479	-0.4236124910682108	-0.246122973410505	-0.2087268213359382	0.7074877393795725	0.7074877393796601	-0.1360726831559191	-0.1386181126118799	0.1070488899244979	-0.01718429653665223	0.7129274718101533	0.3087543518462943	0.5071670056672332	-2.525881982220737	0.2410229872350668	-0.7220226680093185	0.3841943560440854	-2.074989724252342	-2.07498972425232	-0.1310910109838308	0.1446449138376698	-0.4180242012526319	0.06010044171512726	-0.1456256212098069	0.02760449542383284	-0.00691833264438424	-0.1917470054993428	0.04843590847322016	0.03533772319560044	0.1447781960021047	-15.68302614974544	-15.46130743188775	5.395980669840479	-7.650533041940576	-501.1620669231295	-58.29602227809157	-29.29813723259143	0.3957521691219892	0.6157057737014865	-0.8409946370472884	-0.3451961034558212	0.5954369124843786	0.1318484830957512	1.346140639118152	-0.4893248149466989	-0.4893248149481183	0.03281089976285644	0.1616304126708825	-0.2770455012806106	0.475806652547948	4.452880484341405e-07	1.546266684063865e-06	-1.640746785285849e-06	1.845095055528079e-07	7.033914748289022e-07	3.302190278647456e-07	4.288328247406415e-07
